<svg width="50" height="50" viewBox="0 0 50 50" fill="none" xmlns="http://www.w3.org/2000/svg">
<path d="M2.5 20C2.5 17.7909 4.29086 16 6.5 16H44.5C46.7091 16 48.5 17.7909 48.5 20V34C48.5 36.2091 46.7091 38 44.5 38H6.5C4.29086 38 2.5 36.2091 2.5 34V20Z" fill="#020202"/>
<path d="M2.5 11.2908C2.5 11.107 2.58354 10.9332 2.72705 10.8184V10.8184C3.64306 10.0855 5 10.7377 5 11.9108V39.7755C5 40.4518 4.45178 41 3.77551 41V41C3.07107 41 2.5 40.4289 2.5 39.7245V11.2908Z" fill="black"/>
<rect x="8" y="19" width="14" height="2" rx="1" fill="#0029FF"/>
<rect x="8" y="31" width="14" height="2" rx="1" fill="#0029FF"/>
<rect x="8" y="27" width="14" height="2" rx="1" fill="#0029FF"/>
<rect x="8" y="23" width="14" height="2" rx="1" fill="#0029FF"/>
<path d="M37.525 26.1613L35.0263 18.2037L39.7445 18.1213L37.525 26.1613Z" fill="#0029FF"/>
<path d="M36.5 26.5L31.2704 20.0553L28.5301 23.897L36.5 26.5Z" fill="#0029FF"/>
<path d="M38.5077 26.6397L43.7933 20.2409L46.5 24.1064L38.5077 26.6397Z" fill="#0029FF"/>
<path d="M37.5094 27.3512L35.0148 35.0777L39.7329 35.1601L37.5094 27.3512Z" fill="#0029FF"/>
<path d="M36.5266 27.3806L30.7221 33.6134L28.2215 29.6116L36.5266 27.3806Z" fill="#0029FF"/>
<path d="M38.4633 27.329L44.2915 33.6622L46.827 29.6823L38.4633 27.329Z" fill="#0029FF"/>
</svg>
